# xmcd
#
# Track frame offsets:
#	150
#	18310
#	31580
#	46540
#	65760
#	81735
#	93622
#	111225
#	124162
#	144020
#	155742
#	173622
#	187555
#
# Disc length: 2735 seconds
#
# Revision: 2
# Processed by: cddbd v1.5.2PL0 Copyright (c) Steve Scherf et al.
# Submitted via: EasyCDDAExtractor 11.0.2.1
#
DISCID=9e0aad0d
DTITLE=Alvaro Torres - Homenaje A Mexico
DYEAR=1992
DGENRE=Latin
TTITLE0=Me Arrepiento De Quererte
TTITLE1=Paloma Querida
TTITLE2=Si Dios Me Quita La Vida
TTITLE3=El Pastor
TTITLE4=De Punta A Punta
TTITLE5=Entrega Total
TTITLE6=Hazme Olvidarla
TTITLE7=Ojitos Traidores
TTITLE8=El Uno Para El Otro
TTITLE9=Tu Enamorado
TTITLE10=El Dia Que Me Dejes
TTITLE11=Cien Años
TTITLE12=Cruz De Olvido
EXTD=
EXTT0=
EXTT1=
EXTT2=
EXTT3=
EXTT4=
EXTT5=
EXTT6=
EXTT7=
EXTT8=
EXTT9=
EXTT10=
EXTT11=
EXTT12=
PLAYORDER=
